<svg width="32" height="32" viewBox="0 0 30 22" fill="none" xmlns="http://www.w3.org/2000/svg">
<path d="M21 9H18C17.7348 9 17.4804 8.89464 17.2929 8.70711C17.1054 8.51957 17 8.26522 17 8C17 7.73478 17.1054 7.48043 17.2929 7.29289C17.4804 7.10536 17.7348 7 18 7H21C21.2652 7 21.5196 7.10536 21.7071 7.29289C21.8946 7.48043 22 7.73478 22 8C22 8.26522 21.8946 8.51957 21.7071 8.70711C21.5196 8.89464 21.2652 9 21 9ZM12 7H11V6C11 5.73478 10.8946 5.48043 10.7071 5.29289C10.5196 5.10536 10.2652 5 10 5C9.73478 5 9.48043 5.10536 9.29289 5.29289C9.10536 5.48043 9 5.73478 9 6V7H8C7.73478 7 7.48043 7.10536 7.29289 7.29289C7.10536 7.48043 7 7.73478 7 8C7 8.26522 7.10536 8.51957 7.29289 8.70711C7.48043 8.89464 7.73478 9 8 9H9V10C9 10.2652 9.10536 10.5196 9.29289 10.7071C9.48043 10.8946 9.73478 11 10 11C10.2652 11 10.5196 10.8946 10.7071 10.7071C10.8946 10.5196 11 10.2652 11 10V9H12C12.2652 9 12.5196 8.89464 12.7071 8.70711C12.8946 8.51957 13 8.26522 13 8C13 7.73478 12.8946 7.48043 12.7071 7.29289C12.5196 7.10536 12.2652 7 12 7ZM29.185 20.0812C28.8081 20.6194 28.318 21.0686 27.749 21.3971C27.18 21.7256 26.5459 21.9255 25.8914 21.9828C25.2369 22.0401 24.5778 21.9534 23.9603 21.7288C23.3429 21.5041 22.7822 21.147 22.3175 20.6825C22.3025 20.6675 22.2875 20.6525 22.2738 20.6362L17.31 15H12.685L7.72625 20.6362L7.6825 20.6825C6.83775 21.5254 5.69336 21.9992 4.5 22C3.84305 21.9998 3.19411 21.8557 2.59879 21.5779C2.00346 21.3001 1.47618 20.8953 1.05398 20.392C0.631786 19.8886 0.324913 19.299 0.154922 18.6644C-0.0150687 18.0298 -0.0440551 17.3657 0.0699991 16.7188C0.069397 16.7129 0.069397 16.7071 0.0699991 16.7013L2.11625 6.19C2.42079 4.45634 3.32657 2.88546 4.67444 1.75339C6.02232 0.621326 7.72604 0.000499307 9.48625 0H20.5C22.2549 0.00279963 23.9534 0.620076 25.3006 1.74466C26.6478 2.86924 27.5587 4.4301 27.875 6.15625C27.875 6.16375 27.875 6.17125 27.875 6.17875L29.9212 16.7C29.9219 16.7058 29.9219 16.7117 29.9212 16.7175C30.0272 17.299 30.0166 17.8958 29.8902 18.4732C29.7638 19.0506 29.5241 19.5971 29.185 20.0812ZM20.5 13C21.9587 13 23.3576 12.4205 24.3891 11.3891C25.4205 10.3576 26 8.95869 26 7.5C26 6.04131 25.4205 4.64236 24.3891 3.61091C23.3576 2.57946 21.9587 2 20.5 2H9.48625C8.19494 2.00116 6.9454 2.45767 5.95746 3.28922C4.96953 4.12076 4.30649 5.27408 4.085 6.54625V6.5625L2.0375 17.0737C1.947 17.5949 2.0241 18.1313 2.25772 18.6058C2.49134 19.0803 2.86944 19.4685 3.33764 19.7145C3.80584 19.9606 4.34001 20.0518 4.86333 19.9751C5.38665 19.8983 5.87215 19.6576 6.25 19.2875L11.49 13.3388C11.5838 13.2323 11.6992 13.1471 11.8285 13.0886C11.9578 13.0302 12.0981 13 12.24 13H20.5ZM27.9625 17.0737L26.87 11.4487C26.1981 12.5337 25.2604 13.4293 24.1457 14.0508C23.031 14.6722 21.7762 14.9989 20.5 15H19.975L23.75 19.2887C24.0346 19.5656 24.3808 19.771 24.7602 19.8881C25.1396 20.0052 25.5414 20.0307 25.9325 19.9625C26.5841 19.8475 27.1635 19.4788 27.5438 18.9374C27.9241 18.3959 28.0742 17.7257 27.9613 17.0737H27.9625Z" fill="#ecebeb"/>
</svg>
