<svg width="27" height="27" viewBox="0 0 27 27" fill="none" xmlns="http://www.w3.org/2000/svg">
<path d="M26.0163 25.2464L19.7575 18.9889C21.5715 16.811 22.4761 14.0176 22.2831 11.1898C22.09 8.362 20.8141 5.71747 18.7209 3.80636C16.6277 1.89526 13.8783 0.864716 11.0446 0.929116C8.21097 0.993516 5.51121 2.1479 3.50698 4.15213C1.50276 6.15635 0.348374 8.85611 0.283974 11.6898C0.219574 14.5235 1.25012 17.2729 3.16122 19.3661C5.07233 21.4593 7.71685 22.7351 10.5447 22.9282C13.3725 23.1213 16.1659 22.2167 18.3438 20.4026L24.6013 26.6614C24.6942 26.7543 24.8045 26.828 24.9259 26.8783C25.0473 26.9286 25.1774 26.9545 25.3088 26.9545C25.4402 26.9545 25.5703 26.9286 25.6917 26.8783C25.813 26.828 25.9233 26.7543 26.0163 26.6614C26.1092 26.5685 26.1829 26.4582 26.2332 26.3368C26.2834 26.2154 26.3093 26.0853 26.3093 25.9539C26.3093 25.8225 26.2834 25.6924 26.2332 25.571C26.1829 25.4496 26.1092 25.3393 26.0163 25.2464ZM2.30876 11.9539C2.30876 10.1739 2.8366 8.43381 3.82553 6.95377C4.81446 5.47372 6.22007 4.32017 7.86461 3.63898C9.50914 2.95779 11.3187 2.77956 13.0646 3.12683C14.8104 3.4741 16.414 4.33126 17.6727 5.58994C18.9314 6.84861 19.7886 8.45226 20.1358 10.1981C20.4831 11.9439 20.3049 13.7535 19.6237 15.398C18.9425 17.0426 17.7889 18.4482 16.3089 19.4371C14.8288 20.4261 13.0888 20.9539 11.3088 20.9539C8.92262 20.9513 6.63497 20.0022 4.94772 18.3149C3.26047 16.6277 2.3114 14.34 2.30876 11.9539Z" fill="black"/>
</svg>
